<?xml version="1.0" encoding="UTF-8" standalone="no"?>
<svg
   xmlns:dc="http://purl.org/dc/elements/1.1/"
   xmlns:cc="http://creativecommons.org/ns#"
   xmlns:rdf="http://www.w3.org/1999/02/22-rdf-syntax-ns#"
   xmlns:svg="http://www.w3.org/2000/svg"
   xmlns="http://www.w3.org/2000/svg"
   style="shape-rendering:crispEdges"
   version="1.1"
   id="svg4224"
   viewBox="0 0 105 94.999997"
   height="95"
   width="105">
  <defs
     id="defs4226" />
  <metadata
     id="metadata4229">
    <rdf:RDF>
      <cc:Work
         rdf:about="">
        <dc:format>image/svg+xml</dc:format>
        <dc:type
           rdf:resource="http://purl.org/dc/dcmitype/StillImage" />
        <dc:title></dc:title>
      </cc:Work>
    </rdf:RDF>
  </metadata>
  <g
     transform="translate(-247.27428,-523.70681)"
     id="layer1">
    <g
       id="g4136">
      <path
         style="fill:#ff0000"
         d="m 274.55784,615.86225 c -5.0544,-3.35551 -19.10386,-21.94613 -23.04438,-30.49295 -2.63125,-5.70705 -2.93499,-13.99043 -0.67382,-18.37613 3.68587,-7.14906 10.06589,-11.2934 17.39168,-11.29728 7.05287,-0.004 10.33506,2.18318 16.06861,10.70655 1.3842,2.05772 2.69634,3.74131 2.91585,3.74131 0.21953,0 2.72381,-1.40208 5.56507,-3.11573 10.57802,-6.37989 18.35012,-4.66856 26.28948,5.78867 1.0264,1.35191 0.81236,1.32822 -2.28743,-0.25317 -12.29914,-6.27456 -26.91411,4.069 -25.94804,18.36441 0.38862,5.75074 2.12276,9.63297 6.16217,13.7953 l 2.99238,3.08346 -4.45819,2.3584 c -5.62551,2.97591 -13.19934,6.12176 -16.27287,6.75906 -1.66483,0.34521 -3.05355,0.0315 -4.70051,-1.0619 z m 46.00002,-2.65631 c -11.11978,-4.8553 -20.83947,-11.67486 -23.12217,-16.22306 -4.03899,-8.04757 -0.14095,-18.12939 7.94641,-20.55241 4.20054,-1.25852 7.88462,-0.53446 12.18323,2.39445 l 3.43822,2.34268 1.18147,-1.70446 c 0.64981,-0.93746 2.81442,-3.41782 4.81026,-5.51193 3.46433,-3.63489 3.82187,-3.80746 7.88874,-3.80746 5.37314,0 9.01061,1.8781 12.11183,6.25359 2.0255,2.85777 2.35762,4.02715 2.32577,8.18878 -0.0444,5.79901 -1.87655,9.75123 -8.84073,19.07054 -5.92529,7.92909 -10.22592,12.17319 -12.32289,12.1609 -0.90251,-0.006 -4.32257,-1.18052 -7.60014,-2.61162 z m -1.21821,-51.7892 c -4.32732,-3.42832 -5.54263,-5.64626 -4.58769,-8.37257 0.89135,-2.54482 3.52961,-3.26066 6.38506,-1.73247 1.43471,0.76783 2.08282,0.7841 2.79674,0.0702 1.20506,-1.20505 4.75868,-1.19559 5.97019,0.0159 0.51984,0.51985 0.94517,2.08725 0.94517,3.48312 0,2.05256 -0.71554,3.15126 -3.74132,5.74472 -2.05772,1.76374 -3.9584,3.20908 -4.22374,3.21187 -0.26534,0.003 -1.86032,-1.08655 -3.54441,-2.42075 z m -25.8476,-14.40462 c -2.70719,-2.5532 -3.43321,-4.6762 -2.21005,-6.46252 1.01583,-1.48351 3.13785,-1.83598 4.60309,-0.76457 1.17976,0.86266 1.7005,0.85561 3.06977,-0.0416 1.41292,-0.92578 1.89704,-0.90672 3.38166,0.13314 0.95296,0.66748 1.73266,1.83046 1.73266,2.58438 0,1.50395 -5.435,7.204 -6.86902,7.204 -0.4924,0 -2.16105,-1.19379 -3.70811,-2.65286 z m 18.99477,-14.52153 c -1.16407,-1.21502 -2.11648,-2.9493 -2.11648,-3.85396 0,-1.92151 1.95327,-2.90856 3.75758,-1.89881 0.77861,0.43573 1.78061,0.37913 2.62511,-0.14827 1.63433,-1.02065 3.8567,0.44629 3.8567,2.54572 0,1.41916 -3.88299,5.56444 -5.21234,5.56444 -0.43675,0 -1.74651,-0.9941 -2.91057,-2.20912 z"
         id="path4297" />
      <rect
         style="opacity:1;fill:none;fill-opacity:1;fill-rule:nonzero;stroke:none;stroke-width:0.90134758;stroke-linejoin:round;stroke-miterlimit:4;stroke-dasharray:none;stroke-opacity:1"
         id="rect3334"
         width="104.09866"
         height="94.098656"
         x="247.27428"
         y="524.60815" />
    </g>
  </g>
</svg>
