<?xml version="1.0" encoding="UTF-8" standalone="no"?>
<svg
   xmlns:dc="http://purl.org/dc/elements/1.1/"
   xmlns:cc="http://creativecommons.org/ns#"
   xmlns:rdf="http://www.w3.org/1999/02/22-rdf-syntax-ns#"
   xmlns:svg="http://www.w3.org/2000/svg"
   xmlns="http://www.w3.org/2000/svg"
   width="105"
   height="95"
   viewBox="0 0 104.99999 95.000002"
   id="svg2"
   version="1.1">
  <defs
     id="defs4" />
  <metadata
     id="metadata7">
    <rdf:RDF>
      <cc:Work
         rdf:about="">
        <dc:format>image/svg+xml</dc:format>
        <dc:type
           rdf:resource="http://purl.org/dc/dcmitype/StillImage" />
        <dc:title></dc:title>
      </cc:Work>
    </rdf:RDF>
  </metadata>
  <g
     transform="matrix(1.05,0,0,1,19.512697,7.7285643)"
     id="g4137">
    <g
       transform="matrix(0.15578906,0,0,0.15578906,-25.692617,-10.80128)"
       id="layer1"
       style="stroke:none">
      <path
         id="path4203"
         d="m 172.47554,554.5666 -107.500026,-0.0549 -3.41281,-1.19356 -3.4128,-1.19356 -2.0872,-4 -2.08719,-4 -0.29805,-25 c -0.16393,-13.75 0.12899,-50.65 0.65093,-82 l 0.94899,-57 1.9452,-6 1.9452,-6 3.16723,-5 3.16724,-5 3.73054,-3.25418 c 2.05179,-1.7898 5.98328,-4.35033 8.73663,-5.69008 2.753349,-1.33974 7.550349,-3.13786 10.659999,-3.99582 l 5.65391,-1.55992 10.138977,0 10.139,0 5.2071,3.88978 c 2.8639,2.13938 7.45709,5.00584 10.20709,6.36991 2.75,1.36408 9.27504,3.77618 14.50004,5.36022 l 9.5,2.88009 18.5,-0.0533 18.5,-0.0533 9,-2.74664 9,-2.74665 5.8492,-3.02301 c 3.2172,-1.66265 7.9959,-4.56516 10.6195,-6.45002 l 4.7701,-3.42708 9.3806,0.0148 9.3806,0.0148 6.4784,1.5269 6.4784,1.52691 6.2371,3.48793 6.237,3.48794 4.1911,4.97038 c 2.305,2.73371 4.5113,4.97038 4.9028,4.97038 l 0.7118,0 0.5831,-3.75 c 0.3207,-2.0625 2.1567,-11.175 4.08,-20.25 1.9233,-9.075 5.7956,-27.525 8.6051,-41 2.8096,-13.475 6.1917,-29.675 7.5158,-36 1.3241,-6.325 4.0154,-19.15 5.9806,-28.5 1.96524,-9.35 4.08584,-19.5875 4.71244,-22.75 l 1.1394,-5.75 2.0905,0 c 1.1498,0 9.0579,0.44574 17.5735,0.99054 8.5156,0.5448 29.3119,1.68219 46.2139,2.52755 l 30.7309,1.537 6.2691,-3.94497 c 3.448,-2.16974 9.2081,-5.14657 12.8003,-6.61519 l 6.5312,-2.67021 2.2188,-5.4356 c 1.2203,-2.98962 2.2188,-6.03749 2.2188,-6.77308 0,-0.7356 -2.3039,-6.23764 -5.1197,-12.22676 -2.8159,-5.98913 -5.9659,-13.32226 -7,-16.29586 -1.0342,-2.9736 -1.8803,-6.37254 -1.8803,-7.5532 l 0,-2.14664 11.8426,-11.69681 11.8427,-11.69681 1.4073,0.0129 c 0.7741,0.007 4.1074,0.86033 7.4074,1.89607 3.3,1.03575 11.5523,4.15991 18.3386,6.94259 l 12.3386,5.05942 6.3232,-2.59676 6.3232,-2.59677 1.5532,-3.60872 c 0.8542,-1.9848 3.19,-7.87953 5.1906,-13.0994 2.0006,-5.21987 4.51,-11.20104 5.5765,-13.29149 1.0665,-2.09045 2.8204,-4.682147 3.8976,-5.759327 l 1.9585,-1.95851 16,0 16,0 2.1226,2.12263 2.1226,2.12262 4.7002,10.127377 c 2.585,5.57005 5.7523,12.98692 7.0384,16.48193 l 2.3382,6.35456 4.589,1.99156 c 2.5239,1.09537 5.5259,2.35846 6.6711,2.80688 l 2.0822,0.81531 8.9178,-4.00587 c 4.9048,-2.20323 12.894,-5.53837 17.7536,-7.41143 4.8597,-1.87307 9.543,-3.40557 10.4074,-3.40557 l 1.5715,0 11.8427,11.69681 11.8427,11.69681 0,2.64664 0,2.64665 -2.0203,5.90655 c -1.1112,3.24859 -2.8363,7.70654 -3.8336,9.90654 -0.9972,2.2 -3.0832,7.04348 -4.6353,10.7633 l -2.8222,6.7633 1.3148,3.9837 c 0.7231,2.19104 2.0752,5.22256 3.0047,6.7367 l 1.6899,2.753 8.401,2.92236 c 4.6205,1.60729 12.001,4.4494 16.401,6.31578 l 8,3.39343 2.25,2.10853 2.25,2.10853 0,16.25759 0,16.25759 -2.75,1.95704 c -1.5125,1.07638 -6.8,3.7511 -11.75,5.94382 -4.95,2.19273 -12.262,5.23858 -16.2488,6.76857 l -7.2488,2.7818 -2.5012,5.46332 c -1.3757,3.00483 -2.5012,6.09369 -2.5012,6.86413 0,0.77044 1.8604,5.32856 4.1343,10.12916 2.2739,4.80059 5.4223,12.10335 6.9964,16.22835 l 2.862,7.5 0,2.51705 0,2.51706 -10.75,10.61217 c -5.9125,5.8367 -11.6196,11.06787 -12.6825,11.62484 l -1.9325,1.01267 -5.0675,-1.47836 c -2.7871,-0.8131 -11.3166,-3.9577 -18.9545,-6.98799 l -13.8869,-5.50963 -5.9656,2.34609 -5.9656,2.3461 -1.8151,4 c -0.9982,2.2 -3.8737,9.14225 -6.3899,15.42723 -2.5162,6.28497 -5.5908,12.9194 -6.8324,14.74317 l -2.2575,3.31593 -14.2714,0.007 -14.2715,0.007 -0.9521,2.25 c -0.5237,1.2375 -2.5532,9 -4.51,17.25 -1.9568,8.25 -4.964,20.85 -6.6826,28 -1.7186,7.15 -4.0821,16.59844 -5.2522,20.99653 l -2.1275,7.99652 -4.4663,0.7212 c -2.4565,0.39666 -11.8914,1.87717 -20.9664,3.29003 -9.075,1.41285 -24.6,3.87663 -34.5,5.47506 -9.9,1.59843 -26.775,4.28713 -37.5,5.97489 -10.725,1.68775 -26.475,4.19323 -35,5.56772 -8.525,1.37449 -22.4563,3.61934 -30.9585,4.98856 -8.5029,1.36889 -16.6706,2.48916 -18.1512,2.48916 l -2.6921,0 -16.81344,-6.5 c -9.2474,-3.575 -17.1671,-6.5 -17.5995,-6.5 l -0.786,0 0,11.5 0,11.5 194.52984,0 194.5299,0 -0.2799,12.75 -0.2798,12.75 -194.1547,0.25252 -194.15474,0.25252 -0.3589,18.24748 -0.3588,18.24748 -1.4876,3 -1.4876,3 -3.4989,1.74845 -3.4988,1.74844 -107.5,-0.0549 z m 156.00004,-94.05619 c 0.275,0.0436 4.55,-0.59956 9.5,-1.42925 4.95,-0.82968 13.5,-2.13544 19,-2.90167 5.5,-0.76623 19.45,-2.76833 31,-4.44911 11.55,-1.68078 31.8,-4.64609 45,-6.58959 13.2,-1.94349 33.675,-4.9253 45.5,-6.62624 11.825,-1.70093 21.8374,-3.40693 22.2498,-3.79109 0.4124,-0.38417 1.6145,-4.50108 2.6714,-9.14868 1.0568,-4.6476 3.2961,-14.30018 4.9762,-21.45018 1.68,-7.15 4.4407,-18.85 6.1348,-26 1.6942,-7.15 3.8955,-16.6 4.892,-21 0.9964,-4.4 3.9208,-17 6.4987,-28 2.5778,-11 5.763,-24.5 7.0781,-30 1.3152,-5.5 4.0032,-16.975 5.9735,-25.5 1.9703,-8.525 4.434,-18.875 5.475,-23 1.041,-4.125 2.6571,-11.16063 3.5914,-15.63474 0.9342,-4.47411 2.0489,-8.7016 2.4771,-9.39443 l 0.7785,-1.25968 3.3517,2.14423 c 1.8435,1.17933 4.1456,2.76107 5.1158,3.51496 l 1.7641,1.37073 -5.0432,21.37946 c -2.7737,11.75871 -5.2546,21.97763 -5.5131,22.70871 l -0.4699,1.32924 3.249,-0.68675 c 1.787,-0.37771 5.8883,-2.07864 9.114,-3.77984 l 5.865,-3.09309 4.7425,-4.26395 4.7426,-4.26396 3.5499,-6.78545 c 1.9524,-3.73199 4.0812,-8.78098 4.7307,-11.21998 l 1.1808,-4.43454 0,-6.75603 0,-6.75603 -1.6851,-5.79675 c -0.9269,-3.18822 -2.8374,-7.82746 -4.2456,-10.30943 l -2.5604,-4.51268 -4.5927,-4.82018 -4.5926,-4.82017 -6,-3.35489 -6,-3.35489 -6.1444,-1.57494 -6.1443,-1.57493 -6.4242,0 -6.4241,0 -5.4315,1.58613 -5.4315,1.58614 -6.0803,3.36787 -6.0802,3.36788 -4.0852,4.43191 c -2.2469,2.43755 -5.2483,6.2743 -6.6698,8.52612 l -2.5845,4.09421 0,2.01987 0,2.01987 4.0386,0 c 2.2213,0 11.78,0.48372 21.2416,1.07494 9.4617,0.59122 17.37,1.24193 17.5741,1.44603 0.2041,0.20409 -0.1676,2.75787 -0.826,5.67505 -0.6584,2.91719 -2.277,9.80398 -3.5969,15.30398 -1.3199,5.5 -6.4745,27.325 -11.4547,48.5 -4.9802,21.175 -9.9252,42.1 -10.9888,46.5 -1.0637,4.4 -3.0534,12.725 -4.4217,18.5 -1.3682,5.775 -5.4388,23.1 -9.0456,38.5 -3.6068,15.4 -7.0511,29.88809 -7.654,32.19575 l -1.0962,4.19576 -2.6352,0.50132 c -1.4494,0.27573 -5.1102,0.77566 -8.1352,1.11096 -3.025,0.3353 -13.375,1.68366 -23,2.99635 -9.625,1.31269 -28.075,3.79247 -41,5.51062 -12.925,1.71815 -31.6,4.22074 -41.5,5.56131 -9.9,1.34057 -22.95,3.10551 -29,3.92209 -6.05,0.81658 -12.35,1.56723 -14,1.66811 l -3,0.18342 -18.36124,-6.66316 -18.3612,-6.66316 -0.8888,0.54933 -0.8888,0.54933 0,4.45717 0,4.45716 3.25,1.45858 c 1.7875,0.80223 7.75,3.06224 13.25,5.02226 5.50004,1.96002 12.70004,4.62785 16.00004,5.92851 3.3,1.30065 6.225,2.4005 6.5,2.4441 z m 46,-31.49177 c 2.475,-0.28749 12.15,-1.60276 21.5,-2.92283 9.35,-1.32007 22.4,-3.13703 29,-4.03769 6.6,-0.90065 12.3277,-1.94184 12.7282,-2.31375 l 0.7282,-0.6762 -20.7282,-5.86492 c -11.4005,-3.2257 -24.1032,-6.88055 -28.2282,-8.12187 -4.125,-1.24133 -17.4,-5.02905 -29.5,-8.41716 -12.1,-3.38811 -24.7,-6.99794 -28,-8.02184 -3.3,-1.0239 -14.2616,-4.17275 -24.35904,-6.99745 -10.0974,-2.82469 -18.486,-4.99733 -18.6413,-4.82807 -0.1553,0.16926 0.01,6.15774 0.3589,13.30774 l 0.6414,13 12.5,4.16594 c 6.875,2.29126 24.87504,8.23503 40.00004,13.20837 l 27.5,9.04244 4.5,-0.52271 z m -82.75004,-5.40159 c 1.2375,-0.004 5.175,-0.46656 8.75,-1.02757 3.575,-0.561 7.175,-1.26966 8,-1.57479 l 1.5,-0.55477 -9.5,-3.23472 c -5.225,-1.7791 -9.8375,-3.06549 -10.25,-2.85864 l -0.75,0.37607 0,4.44099 0,4.44098 2.25,-0.008 z m 182.22494,-14.3029 1.9749,-0.18955 5.2387,-22 c 2.8813,-12.1 6.3516,-26.725 7.7119,-32.5 1.3602,-5.775 6.5666,-27.825 11.5698,-49 5.0033,-21.175 10.1681,-43 11.4774,-48.5 1.3093,-5.5 3.0662,-12.90079 3.9042,-16.4462 0.838,-3.54541 1.3269,-6.76459 1.0864,-7.15374 l -0.4373,-0.70753 -10.7505,-0.65257 c -5.9127,-0.35891 -23.1254,-1.52962 -38.2504,-2.60158 -15.125,-1.07196 -37.85,-2.59234 -50.5,-3.37862 -12.65,-0.78628 -38.1664,-2.45501 -56.7031,-3.70828 -18.5367,-1.25327 -33.912,-2.06974 -34.1674,-1.81439 -0.2553,0.25536 -1.6073,5.86398 -3.0044,12.4636 -1.3972,6.59962 -3.6604,17.17431 -5.0295,23.49931 -1.3691,6.325 -4.1205,19.15 -6.1142,28.5 -1.99374,9.35 -4.45194,20.825 -5.46274,25.5 -1.0107,4.675 -3.4818,16.15 -5.4913,25.5 -2.0094,9.35 -3.9044,18.43415 -4.2111,20.187 l -0.5576,3.187 5.8706,1.62686 c 3.2289,0.89477 10.59574,2.97255 16.37074,4.61728 5.775,1.64474 13.425,3.83991 17,4.87816 3.575,1.03825 8.525,2.39806 11,3.02181 2.475,0.62374 8.1,2.20942 12.5,3.52372 4.4,1.3143 20.825,6.00187 36.5,10.41682 15.675,4.41494 37.5,10.54819 48.5,13.62943 11,3.08125 21.8,6.20724 24,6.94665 2.2,0.7394 4.8887,1.25908 5.9749,1.15482 z m -75.935,-41.71085 -8.0399,-0.0213 -8,-2.7303 -8,-2.73029 -5.7664,-3.8565 -5.7663,-3.85651 -4.9375,-5.53966 -4.9374,-5.53966 -3.673,-6.98975 -3.673,-6.98976 -1.3682,-5.11249 -1.3682,-5.11249 -0.6369,-8.04621 -0.6369,-8.04621 1.6935,-8.45379 1.6935,-8.45379 3.1401,-6.5 c 1.7271,-3.575 4.6262,-8.44946 6.4426,-10.83213 1.8164,-2.38267 5.2131,-6.11489 7.5483,-8.29382 2.3352,-2.17893 6.5703,-5.27441 9.4115,-6.87885 2.8411,-1.60443 7.9976,-3.87115 11.4588,-5.03714 l 6.293,-2.11998 7.0412,-0.16904 7.0413,-0.16903 5.75,0.82196 5.75,0.82195 -0.027,1.67805 c -0.015,0.92292 -2.1958,8.65304 -4.8462,17.17804 l -4.819,15.5 -6.1004,0.15318 -6.1004,0.15317 -4.6467,2.32065 -4.6466,2.32064 -2.7865,3.52618 -2.7865,3.52618 -1.6203,4.78495 c -0.8911,2.63172 -1.6202,6.03754 -1.6202,7.5685 0,1.53095 0.719,5.22772 1.5977,8.21505 l 1.5978,5.4315 4.76,4.61615 4.7601,4.61615 5.1051,1.22468 5.105,1.22468 5.2188,-1.11924 5.2188,-1.11923 4.3128,-3.53402 4.3128,-3.53403 1.2556,0.73917 c 0.6905,0.40653 6.768,5.24599 13.5055,10.75434 l 12.25,10.01519 0,1.21949 0,1.21949 -6.4582,5.91775 -6.4582,5.91775 -6.2918,3.15293 -6.2918,3.15293 -5.9601,1.51791 -5.9601,1.51791 -8.0399,-0.0213 z m 53.2258,-26.62131 -1.3959,1.85738 -4.5614,-3.85738 c -2.5087,-2.12157 -6.0178,-4.98239 -7.798,-6.35739 -1.7803,-1.375 -5.8859,-4.67645 -9.1236,-7.33655 -3.2378,-2.6601 -5.8868,-5.04053 -5.8868,-5.28984 0,-0.24931 0.9,-2.21743 2,-4.37361 l 2,-3.92032 0,-6.3435 0,-6.34349 -2.589,-5.19548 -2.5891,-5.19547 -3.9456,-2.75087 c -2.1702,-1.51298 -4.6516,-3.22886 -5.5144,-3.81307 l -1.5688,-1.0622 1.4749,-4.4378 c 0.8113,-2.44079 3.1815,-9.9503 5.2672,-16.6878 l 3.7922,-12.25 1.7348,0 c 0.954,0 4.3128,1.35616 7.4638,3.01369 3.151,1.65753 7.9656,4.88622 10.6992,7.17486 l 4.97,4.16117 3.9601,5.36058 3.9601,5.36058 2.8464,6.34395 2.8463,6.34396 1.244,5.87061 1.2441,5.8706 -0.052,9 -0.052,9 -1.6675,6.42004 -1.6674,6.42003 -2.8477,5.57997 c -1.5663,3.06898 -3.4759,6.41578 -4.2437,7.43735 z m -280.26574,6.49805 c -4.4,-0.0577 -10.25,-0.45138 -13,-0.87478 -2.75,-0.42341 -8.9539,-2.11538 -13.7863,-3.75993 l -8.78631,-2.9901 -8.06568,-4.86532 -8.06568,-4.86531 -6.72626,-6.5 c -3.69944,-3.575 -8.54841,-8.99364 -10.77549,-12.04143 -2.227086,-3.04778 -5.180356,-7.77359 -6.562846,-10.50179 -1.382481,-2.72821 -3.703471,-7.88457 -5.157751,-11.45858 l -2.64414,-6.4982 -1.51072,-8.5 -1.51072,-8.5 0.23402,-11 0.23402,-11 -4.79357,-0.3091 -4.793579,-0.3091 0.46796,-15.1909 0.46796,-15.1909 2.698889,-9.90008 2.6989,-9.90008 2.852,-5.59992 2.85201,-5.59992 2.33663,-1.43987 c 1.28515,-0.79193 5.261631,-3.05508 8.836621,-5.02923 3.574996,-1.97415 10.324996,-5.02418 14.999996,-6.77785 4.675,-1.75366 12.325,-4.13739 17,-5.29718 l 8.50004,-2.1087 14.5,-0.53636 14.5,-0.53636 8.9242,2.13541 8.9243,2.13542 7.7016,3.47736 c 4.2359,1.91255 7.9753,3.47736 8.3098,3.47736 0.3345,0 3.2029,1.26081 6.3741,2.80181 3.1713,1.541 7.9035,4.05876 10.516,5.59502 2.6125,1.53627 4.75,2.49205 4.75,2.12395 0,-0.36809 -2.5875,-3.38994 -5.75,-6.71522 l -5.75,-6.04596 -5.5,-3.74701 -5.5,-3.74701 -7.5,-3.10716 -7.5,-3.10718 -7.5,-1.64678 -7.5,-1.64678 -13,-0.0333 -13,-0.0333 -9,1.69582 -9.00004,1.69582 -9.5,3.09699 c -5.225,1.70333 -11.16957,3.93473 -13.21016,4.95865 -2.04059,1.02389 -4.280776,1.86164 -4.978206,1.86164 l -1.26803,0 4.978196,-4.60508 c 2.73801,-2.53279 7.4532,-6.27339 10.4782,-8.31244 3.025,-2.03905 7.75,-4.86083 10.5,-6.27064 2.75,-1.4098 9.275,-3.92311 14.50004,-5.58514 l 9.5,-3.02187 12,-1.51061 12,-1.51061 8.5,0.84278 c 4.675,0.46353 10.75,1.29808 13.5,1.85456 2.75,0.55648 7.8517,2.18049 11.3371,3.60891 3.4855,1.42842 8.2105,3.79628 10.5,5.26191 2.2896,1.46563 6.9473,5.05945 10.3504,7.98626 l 6.1876,5.32149 4.9397,6.22023 4.9396,6.22025 4.3913,8 c 2.4152,4.4 5.7833,11.6 7.4846,16 1.7013,4.4 3.9429,11.48703 4.9815,15.74896 l 1.8882,7.74896 8.0275,0.001 8.0275,10e-4 2.2225,1.5567 2.2225,1.55671 0,7.83251 0,7.83251 -1.8479,2.28207 -1.8479,2.28207 -8.7781,0.46073 -8.7781,0.46073 0.6372,7.11798 0.6372,7.11799 -1.0525,8.33014 c -0.5788,4.58157 -1.7534,11.10657 -2.6102,14.5 -0.8569,3.39342 -2.8701,9.18577 -4.4739,12.87188 -1.6038,3.68612 -4.669,9.31112 -6.8115,12.5 -2.1426,3.18889 -6.0733,8.31956 -8.7349,11.4015 -2.6617,3.08193 -6.4144,6.9417 -8.3394,8.57725 -1.925,1.63555 -5.525,4.34164 -8,6.01353 -2.475,1.6719 -7.2,4.38683 -10.5,6.0332 -3.3,1.64636 -8.8245,3.95972 -12.2767,5.14078 l -6.2766,2.1474 -6.7234,0.97235 -6.7233,0.97235 -8,-0.10494 z m 0.119,-15.94569 5.119,0.0903 8.8476,-1.5429 8.8477,-1.5429 9.0333,-4.43136 9.0334,-4.43136 5,-4.13211 c 2.75,-2.27267 7.3537,-6.89675 10.2304,-10.27574 l 5.2304,-6.14363 3.0647,-5.7247 c 1.6856,-3.14859 3.9635,-8.32359 5.0619,-11.5 1.0984,-3.17642 2.4394,-7.72976 2.98,-10.11854 l 0.9828,-4.34325 0.03,-11.06361 0.03,-11.06361 -1.3052,-0.82783 -1.3052,-0.82788 -69.7748,-0.0153 -69.77474,-0.0153 -0.97525,2.5651 -0.97525,2.5651 0,8.36952 0,8.36953 1.5145,7.19968 c 0.83298,3.95983 2.5859,9.8522 3.89539,13.09417 1.30949,3.24196 3.89046,8.3971 5.7355,11.45585 1.84503,3.05876 5.68883,8.14783 8.54176,11.30905 l 5.18715,5.74767 6.81285,4.57475 6.81289,4.57475 6.5,2.71576 6.5,2.71577 7,1.2814 c 3.85,0.70477 9.3035,1.32201 12.119,1.37165 z"
         style="fill:#ffcc00;stroke:none" />
    </g>
    <rect
       style="opacity:1;fill:none;fill-opacity:1;fill-rule:nonzero;stroke:none;stroke-width:1.08683157;stroke-linejoin:round;stroke-miterlimit:4;stroke-dasharray:none;stroke-opacity:1"
       id="rect3335"
       width="100"
       height="95"
       x="-18.583525"
       y="-7.7285643" />
  </g>
</svg>
